<svg height="33.289824pt" viewBox="-.239051 -.22797 220.087684 33.289824" width="220.087684pt" xmlns="http://www.w3.org/2000/svg" xmlns:xlink="http://www.w3.org/1999/xlink"><defs><path id="a" d="m2.379078 1.350934c-.657534-.502117-1.195516-1.446575-1.195516-2.84533 0-1.380822.526027-2.337235 1.195516-2.84533 0-.005978.017933-.029888.017933-.059776 0-.035865-.02391-.083686-.095641-.083686-.107597 0-1.548194.938481-1.548194 2.988792 0 2.044334 1.43462 2.988792 1.548194 2.988792.071731 0 .095641-.047821.095641-.083686 0-.029888-.017933-.053798-.017933-.059776z"/><path id="b" d="m2.116065-1.494396c0-2.044334-1.43462-2.988792-1.548195-2.988792-.071731 0-.089663.053798-.089663.083686 0 .035866.005977.041843.113574.137485.537982.460274 1.093898 1.344956 1.093898 2.767621 0 1.267248-.442342 2.217684-1.117809 2.785554-.083686.077709-.089663.083686-.089663.119552 0 .029888.017932.083686.089663.083686.107597 0 1.548195-.938481 1.548195-2.988792z"/><path id="c" d="m3.287671-1.906849c0-.436364 0-2.068244-1.464508-2.068244s-1.464508 1.63188-1.464508 2.068244c0 .430386 0 2.032378 1.464508 2.032378s1.464508-1.601992 1.464508-2.032378zm-1.464508 1.841096c-.251058 0-.657534-.119552-.800996-.615692-.095641-.346699-.095641-.932503-.095641-1.303113 0-.400498 0-.860772.083686-1.183562.149439-.537982.603736-.615691.812951-.615691.274969 0 .66949.131507.800996.585804.089664.316811.095642.753175.095642 1.213449 0 .382565 0 .986301-.101619 1.321046-.167373.52005-.597759.597759-.795019.597759z"/><path id="d" d="m2.145953-3.795766c0-.179327-.023911-.179327-.203238-.179327-.394521.382565-1.004234.382565-1.219427.382565v.233126c.155417 0 .549937 0 .908592-.167373v3.01868c0 .197261 0 .274969-.615691.274969h-.257036v.233126c.328767-.02391.795019-.02391 1.129764-.02391s.800996 0 1.129763.02391v-.233126h-.257036c-.615691 0-.615691-.077708-.615691-.274969z"/><path id="e" d="m1.255293-.496139c-.053799.215193-.065754.257036-.514073.257036-.131506 0-.143462 0-.167372.017932-.029888.023911-.053798.101619-.053798.137485.017933.083686.071731.083686.191283.083686h2.432876c1.034122 0 1.847074-.675467 1.847074-1.273225 0-.370611-.32279-.765131-1.069988-.86675.687422-.107597 1.368867-.54396 1.368867-1.08792 0-.430386-.472229-.854795-1.315069-.854795h-2.289414c-.113574 0-.203238 0-.203238.14944 0 .089663.089664.089663.19726.089663s.257036 0 .382566.041844c0 .059775 0 .095641-.023911.191282zm.980323-1.727522.352678-1.416688c.047821-.191282.053798-.203238.304857-.203238h.986301c.621669 0 .800996.376588.800996.627647 0 .490162-.621668.992279-1.356911.992279zm-.286924 1.984558c-.113574 0-.125529 0-.19726-.017933l.430386-1.769365h1.303114c.753175 0 .878704.484184.878704.723288 0 .573848-.633624 1.06401-1.374844 1.06401z"/><path id="f" d="m2.169863-1.829141h1.201494c.89066 0 1.882939-.585803 1.882939-1.309091 0-.526027-.549937-.944458-1.374844-.944458h-2.199751c-.113574 0-.19726 0-.19726.14944 0 .089663.077708.089663.191283.089663.107596 0 .257036 0 .382565.041844 0 .065753 0 .095641-.02391.191282l-.783064 3.114322c-.053798.215193-.065753.257036-.514072.257036-.137485 0-.215193 0-.215193.149439 0 .047821.035865.089664.101619.089664.125529 0 .268991-.017933.400498-.017933.137484 0 .268991-.005977.400498-.005977.137484 0 .274969.005977.412453.005977.131507 0 .280947.017933.406476.017933.041843 0 .137484 0 .137484-.14944 0-.089663-.071731-.089663-.19726-.089663-.011955 0-.119551 0-.227148-.011956-.119552-.011955-.155417-.011955-.155417-.077708 0-.02391.005977-.047821.02391-.107597zm.430386-1.811208c.047821-.191282.053798-.203238.304857-.203238h.771108c.54396 0 .944458.143462.944458.597759 0 .179327-.077708.675467-.412453.932503-.268991.203238-.645579.268991-.986301.268991h-1.022167z"/><path id="g" d="m3.616438-3.969116c.005978-.02391.017933-.059776.017933-.089664 0-.095641-.119552-.089663-.191283-.083686l-.669489.053799c-.101619.005977-.179328.011955-.179328.149439 0 .095641.077709.095641.167373.095641.179327 0 .22117.011956.298879.041844-.005978.089663-.005978.101618-.02391.179327-.12553.514072-.221171.91457-.340723 1.344956-.083686-.137484-.286924-.358655-.657534-.358655-.765131 0-1.590037.800997-1.590037 1.679702 0 .645579.454296 1.016189.962391 1.016189.400498 0 .74122-.274969.89066-.424409.113574.376588.514072.424409.645579.424409.215193 0 .37061-.119552.484184-.304857.14944-.239103.233126-.585803.233126-.615691 0-.011955-.005978-.083686-.113574-.083686-.089664 0-.101619.041843-.125529.137484-.095642.364633-.221171.66949-.454297.66949-.203238 0-.22117-.215193-.22117-.304857 0-.077709 0-.095642.029888-.203238zm-1.291158 3.186052c-.029888.107597-.029888.119552-.113574.209216-.328767.37061-.633624.436364-.783063.436364-.239104 0-.47223-.161395-.47223-.585804 0-.245081.12553-.830884.316812-1.171606.179328-.32279.484185-.54396.771109-.54396.448319 0 .561893.472229.561893.514072l-.017933.083686z"/><path id="h" d="m5.355915-3.825654c0-.992279-.059776-1.960647-.490162-2.86924-.490161-.992279-1.350934-1.255293-1.936737-1.255293-.6934 0-1.542216.3467-1.984558 1.338979-.334744.753176-.454296 1.494396-.454296 2.785554 0 1.159652.083686 2.032379.514072 2.881196.466252.908592 1.291158 1.195517 1.912827 1.195517 1.0401 0 1.637858-.621669 1.984558-1.315069.430386-.896638.454296-2.068244.454296-2.761644zm-2.438854 3.837609c-.382565 0-1.159651-.215193-1.386799-1.518306-.131507-.71731-.131507-1.625903-.131507-2.462765 0-.980324 0-1.865006.191282-2.570361.203238-.800996.812952-1.171606 1.327024-1.171606.454296 0 1.147696.274968 1.374844 1.303113.155418.681444.155418 1.625903.155418 2.438854 0 .800996 0 1.709589-.131507 2.438854-.227149 1.315069-.980324 1.542217-1.398755 1.542217z"/><path id="i" d="m3.443088-7.663263c0-.274969 0-.286924-.239103-.286924-.286924.32279-.884682.765131-2.116065.765131v.3467c.274969 0 .872728 0 1.530262-.310835v6.228643c0 .430386-.035866.573848-1.08792.573848h-.370611v.3467c.32279-.02391 1.482441-.02391 1.876962-.02391s1.542216 0 1.865006.02391v-.3467h-.37061c-1.052055 0-1.087921-.143462-1.087921-.573848z"/><path id="j" d="m8.069738-3.873474c.167373 0 .382566 0 .382566-.215193 0-.227149-.203238-.227149-.382566-.227149h-7.041594c-.167372 0-.382565 0-.382565.215193 0 .227149.203238.227149.382565.227149zm0 2.223661c.167373 0 .382566 0 .382566-.215193 0-.227148-.203238-.227148-.382566-.227148h-7.041594c-.167372 0-.382565 0-.382565.215193 0 .227148.203238.227148.382565.227148z"/><path id="k" d="m10.795517-6.838356c.274969-.466252.537982-.908593 1.255292-.980324.107597-.011955.215193-.02391.215193-.215193 0-.131507-.107596-.131507-.143462-.131507-.02391 0-.107596.023911-.896637.023911-.358655 0-.729265-.023911-1.075965-.023911-.071731 0-.215193 0-.215193.227148 0 .107597.095641.119552.167372.119552.239103.011955.621669.083686.621669.454296 0 .155418-.047821.239104-.167373.442342l-3.26376 5.71457-.430386-6.228643c0-.143462.131506-.37061.800996-.382565.155417 0 .274969 0 .274969-.227148 0-.119552-.119552-.119552-.179328-.119552-.418431 0-.860772.023911-1.291158.023911h-.621669c-.179327 0-.39452-.023911-.573848-.023911-.071731 0-.215193 0-.215193.227148 0 .119552.083686.119552.286924.119552.549938 0 .549938.011955.597759.74122l.035865.430387-3.096388 5.439601-.442342-6.168867c0-.131507 0-.430386.812952-.442341.131507 0 .263013 0 .263013-.215193 0-.131507-.107596-.131507-.179327-.131507-.418431 0-.860772.023911-1.291158.023911h-.621669c-.179328 0-.394521-.023911-.573848-.023911-.071731 0-.215193 0-.215193.227148 0 .119552.095641.119552.263014.119552.561893 0 .573848.071731.597758.454296l.526027 7.340474c.011956.203238.023911.274969.167373.274969.119551 0 .143462-.047821.251058-.227149l3.56264-6.228642.442342 6.180822c.011955.203238.02391.274969.167372.274969.119552 0 .155417-.059776.251059-.227149z"/></defs><g transform="matrix(1.13 0 0 1.13 -63.986043 -61.02)"><path d="m3.53873-3.801743h2.008468c1.649813 0 3.299626-1.219428 3.299626-2.582317 0-.932503-.789041-1.78132-2.295392-1.78132h-3.694147c-.227148 0-.334745 0-.334745.227148 0 .119552.107597.119552.286925.119552.729265 0 .729265.095641.729265.227148 0 .023911 0 .095642-.047821.274969l-1.613948 6.431881c-.107596.41843-.131506.537982-.968368.537982-.227148 0-.3467 0-.3467.215193 0 .131507.107596.131507.179327.131507.227149 0 .466252-.02391.6934-.02391h1.398755c.227148 0 .478207.02391.705355.02391.095641 0 .227148 0 .227148-.227148 0-.119552-.107597-.119552-.286924-.119552-.71731 0-.729265-.083686-.729265-.203238 0-.059776.011955-.143462.02391-.203238zm.860772-3.550685c.107596-.442342.155417-.466252.621669-.466252h1.183561c.896638 0 1.637858.286924 1.637858 1.183562 0 .310834-.155417 1.327023-.705355 1.876961-.203237.215193-.777086.66949-1.865006.66949h-1.685679z" transform="translate(56.413267 74.806557)"/><path d="m3.88543 2.905106c0-.035866 0-.059776-.203238-.263014-1.195517-1.207472-1.865006-3.180075-1.865006-5.618929 0-2.319302.561892-4.315816 1.948692-5.726525.119552-.107597.119552-.131507.119552-.167373 0-.071731-.059776-.095641-.107597-.095641-.155417 0-1.135741.860772-1.721544 2.032378-.609714 1.207472-.884683 2.486675-.884683 3.957161 0 1.06401.167373 2.486675.789042 3.765878.705354 1.43462 1.685678 2.211706 1.817185 2.211706.047821 0 .107597-.02391.107597-.095641z" transform="translate(65.584366 74.806557)"/><use x="70.136691" xlink:href="#k" y="74.806557"/><path d="m3.371357-2.976837c0-.908593-.119551-2.391033-.789041-3.777833-.705355-1.43462-1.685678-2.211706-1.817185-2.211706-.047821 0-.107597.02391-.107597.095641 0 .035866 0 .059776.203238.263014 1.195517 1.207472 1.865006 3.180075 1.865006 5.618929 0 2.319303-.561893 4.315816-1.948692 5.726525-.119552.107597-.119552.131507-.119552.167373 0 .071731.059776.095641.107597.095641.155417 0 1.135741-.860772 1.721544-2.032378.609714-1.219428.884682-2.510586.884682-3.945206z" transform="translate(82.814032 74.806557)"/><use x="90.687187" xlink:href="#j" y="74.806557"/><use x="103.112668" xlink:href="#i" y="74.806557"/><use x="108.965658" xlink:href="#k" y="74.806557"/><path d="m4.65056-3.323537-2.391033-2.379078c-.143462-.143462-.167373-.167373-.263014-.167373-.119552 0-.239103.107597-.239103.239104 0 .083686.02391.107596.155417.239103l2.391034 2.402989-2.391034 2.402989c-.131507.131507-.155417.155417-.155417.239103 0 .131507.119551.239103.239103.239103.095641 0 .119552-.02391.263014-.167372l2.379078-2.379078 2.47472 2.474719c.02391.011956.107597.071731.179328.071731.143462 0 .239103-.107596.239103-.239103 0-.02391 0-.071731-.035866-.131507-.011955-.02391-1.912826-1.900871-2.510585-2.510585l2.187796-2.187796c.059776-.071731.239103-.227148.298879-.298879.011955-.02391.059776-.071731.059776-.155417 0-.131507-.095641-.239104-.239103-.239104-.095642 0-.143462.047821-.274969.179328z" transform="translate(124.299661 74.806557)"/><use x="137.450336" xlink:href="#i" y="66.718799"/><use x="143.303326" xlink:href="#h" y="66.718799"/><use x="150.35183" xlink:href="#f" y="58.281445"/><use x="155.982766" xlink:href="#a" y="58.281445"/><use x="158.860828" xlink:href="#g" y="58.281445"/><use x="162.701283" xlink:href="#e" y="58.281445"/><path d="m6.437858-3.598506c.047821-.19726.059776-.245081.537983-.245081.107596 0 .191282 0 .191282-.149439 0-.089664-.077708-.089664-.185305-.089664h-.848817c-.17335 0-.191282.005978-.286924.143462l-2.367123 3.38929-.663512-3.371357c-.029888-.161395-.065753-.161395-.221171-.161395h-.896637c-.119552 0-.203238 0-.203238.14944 0 .089663.089664.089663.19726.089663s.257036 0 .382566.041844c0 .059775 0 .095641-.023911.191282l-.74122 2.946949c-.059776.245081-.167372.406476-.651557.424409-.083686.005977-.125529.065753-.125529.155417.005978.02391.011955.083686.101619.083686.143462 0 .496139-.02391.639601-.02391l.328768.005977c.107596 0 .233125.017933.334744.017933.12553 0 .131507-.125529.131507-.155417-.017933-.083686-.077709-.083686-.14944-.083686-.274968-.005978-.39452-.083687-.39452-.239104 0-.035865.005978-.059776.02391-.125529l.795019-3.186052h.005978l.711332 3.622416c.02391.107596.041843.167372.137484.167372.089664 0 .137485-.059776.179328-.125529l2.594271-3.718058.005978.005978-.836862 3.34147c-.053798.215193-.065753.257036-.514072.257036-.131507 0-.143462 0-.167372.017932-.029888.023911-.053799.101619-.053799.137485.005978.02391.011956.083686.101619.083686.119552 0 .251059-.017933.370611-.017933.131506 0 .268991-.005977.400498-.005977 0 0 .412453.005977.412453.005977.119552 0 .263014.017933.382565.017933.035866 0 .077709 0 .101619-.041843.011956-.017933.035866-.089664.035866-.113574-.017933-.083686-.071731-.083686-.209216-.083686-.071731 0-.161394-.005978-.227148-.011956-.107596-.011955-.149439-.011955-.149439-.077708 0-.02391.005977-.047821.02391-.107597z" transform="translate(168.525935 58.281445)"/><use x="176.114118" xlink:href="#b" y="58.281445"/><path d="m150.35183 60.134496h28.64031v.358656h-28.64031z"/><use x="161.019073" xlink:href="#d" y="65.431953"/><use x="164.671998" xlink:href="#c" y="65.431953"/><path d="m137.450336 71.578672h43.23545v.478187h-43.23545z"/><use x="147.36208" xlink:href="#i" y="83.00722"/><use x="153.215071" xlink:href="#h" y="83.00722"/><use x="159.068061" xlink:href="#h" y="83.00722"/><use x="164.921051" xlink:href="#h" y="83.00722"/><use x="185.20211" xlink:href="#j" y="74.806557"/><use x="197.627591" xlink:href="#i" y="74.806557"/><use x="203.480581" xlink:href="#h" y="74.806557"/><use x="210.529085" xlink:href="#f" y="65.845456"/><use x="216.160021" xlink:href="#a" y="65.845456"/><use x="219.038083" xlink:href="#g" y="65.845456"/><use x="222.878538" xlink:href="#e" y="65.845456"/><path d="m2.827397-.514072c-.029888.125529-.083686.334744-.083686.376588 0 .131506.101619.19726.209216.19726s.209215-.071731.257036-.161395c.011955-.035865.065753-.245081.095641-.364633l.131507-.537982c.041843-.155417.065753-.263014.101619-.400498.053798-.203238.263013-.52005.484184-.741221.119552-.113574.376588-.292901.699377-.292901.382566 0 .382566.304856.382566.418431 0 .352677-.257036.992279-.364633 1.26127-.035865.101619-.077708.19726-.077708.298879 0 .304857.274968.52005.603736.52005.603736 0 .902615-.789041.902615-.920548 0-.011955-.005978-.083686-.113574-.083686-.083687 0-.089664.029888-.12553.143462-.107596.3467-.364632.663512-.639601.663512-.083686 0-.167372-.035866-.167372-.215193 0-.119552.041843-.227149.095641-.352678.065753-.167372.358655-.89066.358655-1.23736 0-.490162-.37061-.6934-.824907-.6934-.328767 0-.723287.119552-1.11183.627647-.035866-.442341-.388543-.627647-.824907-.627647-.298879 0-.681444.095642-1.06401.567871-.029888-.454296-.448319-.567871-.675467-.567871s-.382565.137485-.490162.328768c-.155417.251058-.22117.56787-.22117.585803 0 .065753.053798.089664.107596.089664.095641 0 .101619-.041844.131507-.137485.119552-.472229.263014-.669489.454296-.669489.203238 0 .215193.209215.215193.304856s-.059775.334745-.101619.502118c-.041843.161394-.101618.406475-.131506.537982-.041843.14944-.077709.304857-.119552.454297-.041843.167372-.113574.466251-.113574.502117 0 .131506.101619.19726.209215.19726s.209216-.071731.257036-.161395c.011956-.035865.065754-.245081.095642-.364633l.131507-.537982c.041843-.155417.065753-.263014.101619-.400498.053798-.203238.263013-.52005.484184-.741221.119552-.113574.376588-.292901.699377-.292901.382566 0 .382566.304856.382566.418431 0 .143462-.059776.382565-.107597.573848z" transform="translate(228.70319 65.845456)"/><use x="235.241144" xlink:href="#b" y="65.845456"/><path d="m4.758157-1.338979c.095641 0 .245081 0 .245081-.155417s-.14944-.155417-.245081-.155417h-3.765878c-.095641 0-.245081 0-.245081.155417s.14944.155417.245081.155417z" transform="translate(238.119207 65.845456)"/><path d="m1.75741-1.984558c.508094 0 .848817.340722.848817.950436 0 .657534-.394521.944458-.830885.944458-.161394 0-.777085-.035865-1.046077-.382565.233126-.02391.328767-.179328.328767-.340722 0-.203238-.143462-.340723-.340722-.340723-.161395 0-.340722.101619-.340722.352678 0 .591781.657534.926525 1.416687.926525.884683 0 1.476463-.56787 1.476463-1.159651 0-.436364-.334744-.896638-1.046077-1.075965.472229-.155417.854795-.537983.854795-1.028145 0-.478206-.561893-.836861-1.279203-.836861-.699378 0-1.231383.322789-1.231383.812951 0 .257036.197261.328767.316812.328767.155418 0 .316812-.107596.316812-.316812 0-.185305-.131506-.292901-.292901-.316812.280946-.310834.824906-.310834.878705-.310834.304856 0 .687422.143462.687422.639601 0 .328767-.185305.902616-.783064.938481-.107596.005978-.268991.017933-.322789.017933-.059776.005977-.12553.011955-.12553.101619 0 .095641.065754.095641.167373.095641z" transform="translate(243.87536 65.845456)"/><use x="247.528285" xlink:href="#c" y="65.845456"/><path d="m210.529085 67.698508h40.652044v.358656h-40.652044z"/><use x="227.202202" xlink:href="#d" y="72.995964"/><use x="230.855128" xlink:href="#c" y="72.995964"/></g></svg>